<svg xmlns="http://www.w3.org/2000/svg" viewBox="0 0 34.01 43.59"><defs><style>.cls-1{fill:#154769;}</style></defs><g id="Layer_2" data-name="Layer 2"><g id="Layer_2-2" data-name="Layer 2"><path class="cls-1" d="M12.94,13.46c-1.1-.44-6-2-10.7,3.25a1.56,1.56,0,0,0-.27.4C1.1,18.79-3.86,29.7,6.33,41.3c0,0,3.43,4.25,9,.94a4.12,4.12,0,0,1,4.72.59s4.72,2.48,7.9-1.53c0,0,9.56-7.9,4.72-23.83,0,0-4.51-6.94-11.24-3.87a1.9,1.9,0,0,0-.34.2c-.75.55-4.31,2.82-7.73-.11A1.09,1.09,0,0,0,12.94,13.46Z"/><path class="cls-1" d="M17,15.38h1.06s-3.2-8.88-5.3-9.24L11.38,8.52A22.42,22.42,0,0,1,17,15.38Z"/><path class="cls-1" d="M17.2,13.81S19.31,2.65,29.74,0C29.74,0,28.27,8.13,17.2,13.81Z"/></g></g></svg>